<svg xmlns="http://www.w3.org/2000/svg" width="1600" height="1000" viewBox="0 0 1600 1000" role="img" aria-labelledby="title desc">
  <title id="title">AI Medical Scribe placeholder</title>
  <desc id="desc">Clinical transcription and summarisation placeholder artwork for the AI Medical Scribe prototype.</desc>
  <defs>
    <linearGradient id="bg" x1="0" y1="0" x2="1" y2="1">
      <stop offset="0%" stop-color="#0d3048" />
      <stop offset="100%" stop-color="#2d6e7b" />
    </linearGradient>
  </defs>
  <rect width="1600" height="1000" fill="url(#bg)" />
  <rect x="82" y="78" width="1436" height="844" rx="34" fill="#f4f7f9" />
  <rect x="132" y="132" width="1336" height="110" rx="26" fill="#ffffff" />
  <text x="180" y="204" fill="#254156" font-family="Segoe UI, Arial, sans-serif" font-size="50" font-weight="700">AI Medical Scribe</text>
  <text x="714" y="204" fill="#697f89" font-family="Segoe UI, Arial, sans-serif" font-size="28">Local-first clinical transcription and drafting</text>
  <rect x="132" y="302" width="640" height="548" rx="30" fill="#ffffff" />
  <text x="182" y="366" fill="#243d56" font-family="Segoe UI, Arial, sans-serif" font-size="32" font-weight="600">Transcript</text>
  <rect x="182" y="416" width="540" height="18" rx="9" fill="#dbe6eb" />
  <rect x="182" y="458" width="504" height="18" rx="9" fill="#dbe6eb" />
  <rect x="182" y="500" width="526" height="18" rx="9" fill="#dbe6eb" />
  <rect x="182" y="542" width="438" height="18" rx="9" fill="#dbe6eb" />
  <path d="M184 658c28-60 54 60 82 0s54 60 82 0 54 60 82 0 54 60 82 0 54 60 82 0" fill="none" stroke="#46b6c3" stroke-width="14" stroke-linecap="round" stroke-linejoin="round" />
  <rect x="820" y="302" width="648" height="548" rx="30" fill="#183449" />
  <text x="870" y="366" fill="#ffffff" font-family="Segoe UI, Arial, sans-serif" font-size="32" font-weight="600">Structured Output</text>
  <rect x="870" y="416" width="548" height="134" rx="24" fill="#21455a" />
  <rect x="918" y="458" width="264" height="20" rx="10" fill="#7fd6c5" />
  <rect x="918" y="500" width="392" height="20" rx="10" fill="#9bb3bf" />
  <rect x="870" y="588" width="262" height="214" rx="24" fill="#21455a" />
  <text x="914" y="650" fill="#ffffff" font-family="Segoe UI, Arial, sans-serif" font-size="28" font-weight="600">Summary</text>
  <rect x="914" y="688" width="174" height="18" rx="9" fill="#9bb3bf" />
  <rect x="914" y="726" width="144" height="18" rx="9" fill="#9bb3bf" />
  <rect x="1160" y="588" width="258" height="214" rx="24" fill="#ffffff" />
  <text x="1204" y="650" fill="#244056" font-family="Segoe UI, Arial, sans-serif" font-size="28" font-weight="600">FHIR Export</text>
  <rect x="1204" y="692" width="170" height="24" rx="12" fill="#d9e6eb" />
  <rect x="1204" y="740" width="132" height="24" rx="12" fill="#d9e6eb" />
  <circle cx="1372" cy="736" r="34" fill="#ec8f7a" />
  <path d="M1356 736l12 12 22-24" fill="none" stroke="#ffffff" stroke-width="10" stroke-linecap="round" stroke-linejoin="round" />
</svg>