<svg xmlns="http://www.w3.org/2000/svg" width="1600" height="1000" viewBox="0 0 1600 1000" role="img" aria-labelledby="title desc">
  <title id="title">Kribik placeholder</title>
  <desc id="desc">Operations dashboard placeholder artwork for the Kribik help desk and project management platform.</desc>
  <defs>
    <linearGradient id="bg" x1="0" y1="0" x2="1" y2="1">
      <stop offset="0%" stop-color="#122733" />
      <stop offset="100%" stop-color="#28566d" />
    </linearGradient>
  </defs>
  <rect width="1600" height="1000" fill="url(#bg)" />
  <rect x="76" y="72" width="1448" height="856" rx="34" fill="#f1f5f7" />
  <rect x="118" y="118" width="300" height="764" rx="28" fill="#10222d" />
  <text x="166" y="204" fill="#ffffff" font-family="Segoe UI, Arial, sans-serif" font-size="54" font-weight="700">Kribik</text>
  <text x="166" y="252" fill="#9ab9c9" font-family="Segoe UI, Arial, sans-serif" font-size="24">
    <tspan x="166" dy="0">Help desk</tspan>
    <tspan x="166" dy="30">and ITSM workflows</tspan>
  </text>
  <circle cx="210" cy="352" r="26" fill="#59b4d8" />
  <circle cx="210" cy="432" r="26" fill="#ef7d5a" />
  <circle cx="210" cy="512" r="26" fill="#91d0af" />
  <rect x="254" y="334" width="108" height="36" rx="18" fill="#183444" />
  <rect x="254" y="414" width="90" height="36" rx="18" fill="#183444" />
  <rect x="254" y="494" width="122" height="36" rx="18" fill="#183444" />
  <rect x="458" y="140" width="1026" height="110" rx="24" fill="#ffffff" />
  <text x="506" y="206" fill="#254157" font-family="Segoe UI, Arial, sans-serif" font-size="34" font-weight="600">Tickets, approvals, releases, Git-linked delivery, and AI support</text>
  <rect x="458" y="300" width="308" height="500" rx="28" fill="#ffffff" />
  <text x="498" y="362" fill="#21435b" font-family="Segoe UI, Arial, sans-serif" font-size="30" font-weight="600">Queue</text>
  <rect x="498" y="404" width="228" height="96" rx="20" fill="#edf3f6" />
  <rect x="498" y="522" width="228" height="96" rx="20" fill="#edf3f6" />
  <rect x="498" y="640" width="228" height="96" rx="20" fill="#dff0f8" />
  <rect x="808" y="300" width="308" height="500" rx="28" fill="#10222d" />
  <text x="848" y="362" fill="#ffffff" font-family="Segoe UI, Arial, sans-serif" font-size="30" font-weight="600">Kanban</text>
  <rect x="848" y="410" width="96" height="250" rx="18" fill="#17384a" />
  <rect x="964" y="410" width="96" height="200" rx="18" fill="#1f465b" />
  <rect x="848" y="686" width="212" height="30" rx="15" fill="#59b4d8" />
  <rect x="1158" y="300" width="326" height="500" rx="28" fill="#ffffff" />
  <text x="1198" y="362" fill="#21435b" font-family="Segoe UI, Arial, sans-serif" font-size="30" font-weight="600">Operations</text>
  <circle cx="1270" cy="486" r="88" fill="none" stroke="#e1eaef" stroke-width="30" />
  <path d="M1270 398A88 88 0 1 1 1208 548" fill="none" stroke="#ef7d5a" stroke-width="30" stroke-linecap="round" />
  <text x="1228" y="500" fill="#21435b" font-family="Segoe UI, Arial, sans-serif" font-size="36" font-weight="700">SLA</text>
  <rect x="1374" y="418" width="70" height="18" rx="9" fill="#59b4d8" />
  <rect x="1374" y="456" width="86" height="18" rx="9" fill="#91d0af" />
  <rect x="1198" y="628" width="246" height="26" rx="13" fill="#e1eaef" />
  <rect x="1198" y="676" width="204" height="26" rx="13" fill="#e1eaef" />
</svg>