<svg xmlns="http://www.w3.org/2000/svg" width="1600" height="1000" viewBox="0 0 1600 1000" role="img" aria-labelledby="title desc">
  <title id="title">RectangleRooms placeholder</title>
  <desc id="desc">Puzzle grid interface placeholder artwork for RectangleRooms, a daily logic puzzle platform.</desc>
  <defs>
    <linearGradient id="bg" x1="0" y1="0" x2="1" y2="1">
      <stop offset="0%" stop-color="#1a3a42" />
      <stop offset="100%" stop-color="#2d5a6a" />
    </linearGradient>
  </defs>
  <rect width="1600" height="1000" fill="url(#bg)" />
  <rect x="76" y="72" width="1448" height="856" rx="34" fill="#f0f5f7" />
  <rect x="118" y="118" width="280" height="764" rx="28" fill="#1b3c47" />
  <text x="166" y="204" fill="#ffffff" font-family="Segoe UI, Arial, sans-serif" font-size="54" font-weight="700">Rectangle</text>
  <text x="166" y="260" fill="#ffffff" font-family="Segoe UI, Arial, sans-serif" font-size="54" font-weight="700">Rooms</text>
  <text x="166" y="320" fill="#7eb3c4" font-family="Segoe UI, Arial, sans-serif" font-size="24">
    <tspan x="166" dy="0">Daily logic</tspan>
    <tspan x="166" dy="30">puzzles</tspan>
  </text>
  <rect x="166" y="390" width="144" height="64" rx="16" fill="#2a5a68" />
  <rect x="166" y="480" width="144" height="64" rx="16" fill="#2a5a68" />
  <rect x="166" y="570" width="144" height="64" rx="16" fill="#2a5a68" />
  <!-- Main content area header -->
  <rect x="430" y="140" width="1054" height="100" rx="24" fill="#ffffff" />
  <text x="476" y="204" fill="#1b3c47" font-family="Segoe UI, Arial, sans-serif" font-size="32" font-weight="600">Play daily puzzles and explore a growing collection</text>
  <!-- Puzzle grid container -->
  <rect x="430" y="290" width="1054" height="520" rx="28" fill="#ffffff" />
  <!-- Header area in grid -->
  <rect x="476" y="320" width="320" height="60" rx="16" fill="#f0f5f7" />
  <text x="506" y="358" fill="#1b3c47" font-family="Segoe UI, Arial, sans-serif" font-size="20" font-weight="600">Campaign 28</text>
  <rect x="838" y="320" width="140" height="60" rx="16" fill="#f0f5f7" />
  <text x="858" y="358" fill="#1b3c47" font-family="Segoe UI, Arial, sans-serif" font-size="18" font-weight="600">Easy</text>
  <!-- Puzzle grid with rectangles -->
  <rect x="530" y="430" width="50" height="50" rx="6" fill="#ffffff" stroke="#d4dfe5" stroke-width="2" />
  <text x="555" y="462" fill="#7eb3c4" font-family="Segoe UI, Arial, sans-serif" font-size="28" font-weight="700" text-anchor="middle">1</text>
  <rect x="610" y="430" width="50" height="50" rx="6" fill="#ffffff" stroke="#d4dfe5" stroke-width="2" />
  <text x="635" y="462" fill="#7eb3c4" font-family="Segoe UI, Arial, sans-serif" font-size="28" font-weight="700" text-anchor="middle">2</text>
  <rect x="690" y="430" width="50" height="50" rx="6" fill="#ffffff" stroke="#d4dfe5" stroke-width="2" />
  <text x="715" y="462" fill="#7eb3c4" font-family="Segoe UI, Arial, sans-serif" font-size="28" font-weight="700" text-anchor="middle">3</text>
  <rect x="770" y="430" width="50" height="50" rx="6" fill="#ffffff" stroke="#d4dfe5" stroke-width="2" />
  <text x="795" y="462" fill="#7eb3c4" font-family="Segoe UI, Arial, sans-serif" font-size="28" font-weight="700" text-anchor="middle">4</text>
  <rect x="530" y="510" width="50" height="50" rx="6" fill="#2d5a6a" stroke="#1b3c47" stroke-width="2" />
  <text x="555" y="542" fill="#ffffff" font-family="Segoe UI, Arial, sans-serif" font-size="28" font-weight="700" text-anchor="middle">5</text>
  <rect x="610" y="510" width="50" height="50" rx="6" fill="#ffffff" stroke="#d4dfe5" stroke-width="2" />
  <text x="635" y="542" fill="#7eb3c4" font-family="Segoe UI, Arial, sans-serif" font-size="28" font-weight="700" text-anchor="middle">6</text>
  <rect x="690" y="510" width="50" height="50" rx="6" fill="#2d5a6a" stroke="#1b3c47" stroke-width="2" />
  <text x="715" y="542" fill="#ffffff" font-family="Segoe UI, Arial, sans-serif" font-size="28" font-weight="700" text-anchor="middle">7</text>
  <rect x="770" y="510" width="50" height="50" rx="6" fill="#ffffff" stroke="#d4dfe5" stroke-width="2" />
  <text x="795" y="542" fill="#7eb3c4" font-family="Segoe UI, Arial, sans-serif" font-size="28" font-weight="700" text-anchor="middle">8</text>
  <rect x="530" y="590" width="50" height="50" rx="6" fill="#ffffff" stroke="#d4dfe5" stroke-width="2" />
  <text x="555" y="622" fill="#7eb3c4" font-family="Segoe UI, Arial, sans-serif" font-size="28" font-weight="700" text-anchor="middle">9</text>
  <rect x="610" y="590" width="50" height="50" rx="6" fill="#2d5a6a" stroke="#1b3c47" stroke-width="2" />
  <text x="635" y="622" fill="#ffffff" font-family="Segoe UI, Arial, sans-serif" font-size="28" font-weight="700" text-anchor="middle">10</text>
  <!-- Control buttons area -->
  <circle cx="520" cy="710" r="24" fill="#7eb3c4" />
  <text x="520" y="717" fill="#1b3c47" font-family="Segoe UI, Arial, sans-serif" font-size="32" font-weight="700" text-anchor="middle">✓</text>
  <circle cx="600" cy="710" r="24" fill="none" stroke="#d4dfe5" stroke-width="2" />
  <circle cx="680" cy="710" r="24" fill="none" stroke="#d4dfe5" stroke-width="2" />
  <circle cx="760" cy="710" r="24" fill="#7eb3c4" />
  <text x="760" y="717" fill="#1b3c47" font-family="Segoe UI, Arial, sans-serif" font-size="32" font-weight="700" text-anchor="middle">→</text>
  <!-- Feature badges -->
  <rect x="900" y="430" width="140" height="50" rx="12" fill="#f0f5f7" />
  <text x="970" y="462" fill="#1b3c47" font-family="Segoe UI, Arial, sans-serif" font-size="16" font-weight="600" text-anchor="middle">Daily Challenge</text>
  <rect x="900" y="510" width="140" height="50" rx="12" fill="#f0f5f7" />
  <text x="970" y="542" fill="#1b3c47" font-family="Segoe UI, Arial, sans-serif" font-size="16" font-weight="600" text-anchor="middle">Anonymous Play</text>
  <rect x="900" y="590" width="140" height="50" rx="12" fill="#f0f5f7" />
  <text x="970" y="622" fill="#1b3c47" font-family="Segoe UI, Arial, sans-serif" font-size="16" font-weight="600" text-anchor="middle">Leaderboards</text>
  <!-- Additional UI elements -->
  <rect x="1100" y="430" width="320" height="220" rx="16" fill="#f0f5f7" />
  <text x="1130" y="460" fill="#1b3c47" font-family="Segoe UI, Arial, sans-serif" font-size="18" font-weight="600">Recent Puzzles</text>
  <rect x="1130" y="490" width="260" height="18" rx="9" fill="#e0e8ed" />
  <rect x="1130" y="530" width="260" height="18" rx="9" fill="#e0e8ed" />
  <rect x="1130" y="570" width="260" height="18" rx="9" fill="#e0e8ed" />
  <rect x="1130" y="610" width="200" height="18" rx="9" fill="#e0e8ed" />
</svg>
